HIERARCHY
ROOT Hips
{
	OFFSET 0.000000 0.000000 0.000000 
	CHANNELS 6 Xposition Yposition Zposition Zrotation Yrotation Xrotation
	JOINT LeftUpLeg
	{
		OFFSET 1.363060 -1.794630 0.839290 
		CHANNELS 3 Zrotation Yrotation Xrotation
		JOINT LeftLeg
		{
			OFFSET 2.448110 -6.726130 0.000000 
			CHANNELS 3 Zrotation Yrotation Xrotation
			JOINT LeftFoot
			{
				OFFSET 2.562200 -7.039590 0.000000 
				CHANNELS 3 Zrotation Yrotation Xrotation
				JOINT LeftToeBase
				{
					OFFSET 0.157640 -0.433110 2.322550 
					CHANNELS 3 Zrotation Yrotation Xrotation
					End Site
					{
						OFFSET 0.000000 0.000000 0.000000 
					}
				}
			}
		}
	}
	JOINT RightUpLeg
	{
		OFFSET -1.305520 -1.794630 0.839290 
		CHANNELS 3 Zrotation Yrotation Xrotation
		JOINT RightLeg
		{
			OFFSET -2.542530 -6.985550 0.000000 
			CHANNELS 3 Zrotation Yrotation Xrotation
			JOINT RightFoot
			{
				OFFSET -2.568260 -7.056230 0.000000 
				CHANNELS 3 Zrotation Yrotation Xrotation
				JOINT RightToeBase
				{
					OFFSET -0.164730 -0.452590 2.363150 
					CHANNELS 3 Zrotation Yrotation Xrotation
					End Site
					{
						OFFSET 0.000000 0.000000 0.000000 
					}
				}
			}
		}
	}
	JOINT Spine
	{
		OFFSET 0.028270 2.035590 -0.193380 
		CHANNELS 3 Zrotation Yrotation Xrotation
		JOINT Spine1
		{
			OFFSET 0.056720 2.048850 -0.042750 
			CHANNELS 3 Zrotation Yrotation Xrotation
			JOINT Neck1
			{
				OFFSET -0.054170 1.746240 0.172020 
				CHANNELS 3 Zrotation Yrotation Xrotation
				JOINT Head
				{
					OFFSET 0.104070 1.761360 -0.123970 
					CHANNELS 3 Zrotation Yrotation Xrotation
					End Site
					{
						OFFSET 0.000000 0.000000 0.000000 
					}
				}
			}
			JOINT LeftArm
			{
				OFFSET 3.362410 1.200890 -0.311210 
				CHANNELS 3 Zrotation Yrotation Xrotation
				JOINT LeftForeArm
				{
					OFFSET 4.983000 -0.000000 -0.000000 
					CHANNELS 3 Zrotation Yrotation Xrotation
					JOINT LeftHand
					{
						OFFSET 3.483560 -0.000000 -0.000000 
						CHANNELS 3 Zrotation Yrotation Xrotation
						JOINT LeftHandIndex1
						{
							OFFSET 0.715260 -0.000000 -0.000000 
							CHANNELS 3 Zrotation Yrotation Xrotation
							End Site
							{
								OFFSET 0.000000 0.000000 0.000000 
							}
						}
					}
				}
			}
			JOINT RightArm
			{
				OFFSET -3.136600 1.374050 -0.404650 
				CHANNELS 3 Zrotation Yrotation Xrotation
				JOINT RightForeArm
				{
					OFFSET -5.241900 -0.000000 -0.000000 
					CHANNELS 3 Zrotation Yrotation Xrotation
					JOINT RightHand
					{
						OFFSET -3.444170 -0.000000 -0.000000 
						CHANNELS 3 Zrotation Yrotation Xrotation
						JOINT RightHandIndex1
						{
							OFFSET -0.622530 -0.000000 -0.000000 
							CHANNELS 3 Zrotation Yrotation Xrotation
							End Site
							{
								OFFSET 0.000000 0.000000 0.000000 
							}
						}
					}
				}
			}
		}
	}
}
MOTION
Frames: 9
Frame Time: 0.041667
-0.501282 17.607793 -45.848248 -0.867665 -6.025184 19.319455 -11.054729 -2.627790 -43.348128 -0.304141 9.341862 23.018895 -1.720907 9.889529 1.848908 0.135000 -2.368100 -6.524200 20.429814 -4.213815 -17.268423 -1.169451 -9.322817 26.036183 -3.105830 25.034546 -11.138095 -0.098000 -2.019200 5.558800 0.856533 2.144025 -8.971315 -0.597717 1.453070 0.467573 1.465828 -2.513048 10.020944 -1.086300 -1.098100 2.879900 -101.658423 15.981098 -6.434129 3.537936 -12.603383 -0.203310 -1.102588 -0.381624 35.782767 -7.125000 0.000000 0.000000 96.373700 6.132859 41.125032 -34.010916 50.100495 -14.194014 0.018651 -1.789591 -25.445897 7.125000 0.000000 0.000000 
-0.494505 17.587462 -45.614603 -0.942718 -6.684679 19.414580 -10.452500 -2.622885 -43.053566 -0.795184 8.284906 19.950109 -1.713470 9.911676 2.009948 0.098500 -2.024000 -5.571900 20.185091 -4.499081 -16.258602 -1.048432 -8.990868 25.148366 -3.025138 25.634777 -10.593141 -0.104600 -2.085100 5.740800 0.858002 2.310742 -8.905467 -0.420262 1.555350 0.702913 1.512623 -2.356804 9.956800 -1.034000 -1.024900 2.864000 -101.865307 16.896698 -6.445931 3.603345 -12.804753 -0.232421 -1.082406 -0.389839 35.159681 -7.125000 0.000000 0.000000 96.138877 7.407236 39.465939 -32.849671 49.358930 -13.582119 0.267686 -1.614185 -18.164662 7.125000 0.000000 0.000000 
-0.482780 17.579932 -45.376871 -1.106791 -6.981090 19.491048 -9.566006 -3.162546 -42.779542 -1.131059 7.445512 17.553856 -1.636150 9.556455 1.449467 0.029700 -1.112000 -3.056900 20.118476 -5.073465 -15.229990 -0.925457 -8.632370 24.189630 -2.951212 26.180228 -10.170502 -0.096700 -2.005000 5.519600 0.867992 2.392033 -8.962030 -0.405659 1.610478 0.521297 1.463927 -2.302852 9.876464 -1.032500 -1.002300 2.783000 -101.972087 18.147338 -6.689008 3.695929 -13.004180 -0.248527 -1.027556 -0.498166 34.712385 -7.125000 0.000000 0.000000 95.925371 7.981554 39.555889 -34.447452 50.435218 -14.627297 0.292893 -1.608628 -16.412116 7.125000 0.000000 0.000000 
-0.470409 17.567992 -45.142796 -1.248320 -7.103519 19.617194 -8.990407 -3.389082 -42.513908 -1.454240 6.464058 14.838712 -1.509562 9.112514 1.627202 0.001700 -0.265800 -0.730400 20.052831 -5.679609 -14.369227 -0.840811 -8.346452 23.438523 -2.877926 26.691059 -9.805622 -0.103000 -2.069500 5.697900 0.846614 2.420043 -8.997303 -0.567361 1.619240 0.431709 1.280344 -2.356219 9.720332 -1.127500 -1.032700 2.632800 -101.956017 19.246092 -7.206896 3.745624 -13.099680 -0.243096 -1.025739 -0.542557 34.548236 -7.125000 0.000000 0.000000 95.852764 8.681911 39.474275 -36.102997 51.496687 -15.719704 0.359987 -1.630234 -16.248083 7.125000 0.000000 0.000000 
-0.454058 17.537442 -44.906569 -1.362502 -7.393397 19.733376 -8.989467 -2.971737 -42.696307 -1.689211 5.587170 12.474645 -1.365476 8.681998 2.370219 0.069300 -1.699000 -4.674400 19.875530 -6.225330 -13.564657 -0.769161 -8.065458 22.725519 -2.764632 27.353208 -9.243346 -0.114400 -2.180600 6.005000 0.780519 2.532764 -9.253848 -0.884563 1.661741 -0.437461 1.239305 -2.224502 9.808560 -1.141300 -0.966100 2.700200 -101.837367 20.633216 -8.050869 3.773544 -13.046027 -0.224282 -1.051700 -0.541131 34.700484 -7.125000 0.000000 0.000000 95.638160 8.656361 40.597835 -35.375831 51.050970 -15.259944 0.338506 -1.451504 -14.611326 7.125000 0.000000 0.000000 
-0.440289 17.492369 -44.667438 -1.455488 -7.843126 19.873063 -9.312061 -2.181351 -43.119635 -1.865321 4.789808 10.348042 -1.230082 8.366222 3.448649 0.632600 -5.089200 -14.163000 19.620424 -6.357937 -12.622033 -0.699017 -7.835768 22.129474 -2.737679 27.485143 -9.091470 -0.066100 -1.658800 4.563600 0.694707 2.696829 -9.171144 -1.106515 1.727316 -0.097304 1.386818 -2.049424 9.694278 -1.052900 -0.879100 2.674400 -101.915576 20.875151 -10.461720 3.549793 -12.528931 -0.164216 -1.092184 -0.522151 36.366423 -7.125000 0.000000 0.000000 95.590480 9.579842 41.313527 -35.812256 51.373369 -15.554867 0.347922 -1.408500 -16.435793 7.125000 0.000000 0.000000 
-0.435018 17.471501 -44.426694 -1.303958 -8.348815 20.024672 -10.331325 -0.909059 -43.609715 -2.011421 4.076276 8.540129 -0.827455 6.828676 4.212948 0.833900 -5.825400 -16.278700 19.104560 -6.035475 -11.563781 -0.617809 -7.613885 21.588156 -2.686150 27.256576 -8.605770 -0.063000 -1.619600 4.455500 0.615855 2.863710 -9.208237 -1.071761 1.814820 -0.145562 1.476663 -2.105469 9.779034 -0.979800 -0.905700 2.697900 -101.956486 21.589467 -11.836019 3.451496 -12.295054 -0.145547 -1.095778 -0.519979 36.977407 -7.125000 0.000000 0.000000 95.486457 10.308070 40.971646 -37.946361 52.639957 -16.973131 0.413432 -1.489303 -18.975263 7.125000 0.000000 0.000000 
-0.427918 17.446759 -44.183906 -1.237421 -8.689451 20.236614 -11.038543 -0.139471 -44.126980 -2.093645 3.586626 7.287042 -0.508678 5.625881 4.959111 0.776500 -5.626200 -15.703500 18.739527 -5.639720 -10.502492 -0.522607 -7.377094 20.999802 -2.575117 27.059611 -7.812555 -0.105500 -2.093900 5.765300 0.555006 2.939031 -8.963778 -1.079073 1.844474 0.832020 1.534640 -2.167072 9.610924 -0.945300 -0.938900 2.618000 -102.052727 21.873300 -11.107581 3.530386 -12.580601 -0.171572 -1.079785 -0.545749 35.659732 -7.125000 0.000000 0.000000 95.459592 11.406302 41.202890 -38.808617 53.196579 -17.584959 0.431484 -1.485494 -19.005639 7.125000 0.000000 0.000000 
-0.416408 17.415241 -43.935847 -1.310107 -8.896636 20.301084 -11.101261 -0.082436 -44.484708 -2.121212 3.339689 6.624335 -0.422074 5.394299 5.499538 0.883300 -5.991200 -16.758800 18.513700 -5.217018 -9.270775 -0.428192 -7.142159 20.411742 -2.574505 26.495009 -7.669645 -0.065300 -1.648900 4.536300 0.413997 3.126481 -9.227304 -1.576942 1.903040 -0.060782 1.606633 -2.300235 9.806578 -0.939000 -0.995400 2.739600 -101.546222 23.346613 -10.039811 3.722150 -12.892202 -0.192705 -1.081673 -0.555014 34.280668 -7.125000 0.000000 0.000000 95.613034 10.986241 41.027472 -39.924645 53.792144 -18.339898 0.447968 -1.472316 -18.931098 7.125000 0.000000 0.000000 
